<svg width="163" height="162" xmlns="http://www.w3.org/2000/svg" xmlns:xlink="http://www.w3.org/1999/xlink" xml:space="preserve" overflow="hidden"><defs><clipPath id="clip0"><rect x="41" y="130" width="163" height="162"/></clipPath></defs><g clip-path="url(#clip0)" transform="translate(-41 -130)"><path d="M106.312 25.3125 25.3125 25.3125 25.3125 75.9375 35.4375 75.9375 35.4375 35.4375 45.5625 35.4375 45.5625 75.9375 75.9375 75.9375 75.9375 106.312 45.5625 106.312 45.5625 116.438 86.0625 116.438 86.0625 65.8125 55.6875 65.8125 55.6875 35.4375 75.9375 35.4375 75.9375 45.5625 65.8125 45.5625 65.8125 55.6875 86.0625 55.6875 86.0625 35.4375 106.312 35.4375 106.312 25.3125Z" transform="matrix(1.00617 0 0 1 41 130)"/><path d="M116.438 25.3125 116.438 35.4375 126.562 35.4375 126.562 45.5625 96.1875 45.5625 96.1875 75.9375 106.312 75.9375 106.312 55.6875 126.562 55.6875 126.562 67.5 116.438 67.5 116.438 77.625 126.562 77.625 126.562 106.312 106.312 106.312 106.312 96.1875 118.125 96.1875 118.125 86.0625 96.1875 86.0625 96.1875 116.438 126.562 116.438 126.562 126.562 35.4375 126.562 35.4375 96.1875 65.8125 96.1875 65.8125 86.0625 25.3125 86.0625 25.3125 136.688 136.688 136.688 136.688 25.3125 116.438 25.3125Z" transform="matrix(1.00617 0 0 1 41 130)"/></g></svg>